name N:\Shared_Data\HIL\Data Collection\CoPD-X-MoreData\processed\iteration012\grf0012.mot
datacolumns 19
datarows 22
range 2325.914475 2325.949468
endheader
time	ground_force1_vx	ground_force1_vy	ground_force1_vz	ground_force1_px	ground_force1_py	ground_force1_pz	ground_force2_vx	ground_force2_vy	ground_force2_vz	ground_force2_px	ground_force2_py	ground_force2_pz	ground_torque1_x	ground_torque1_y	ground_torque1_z	ground_torque2_x	ground_torque2_y	ground_torque2_z	
2325.914475	-52.48278331	584.7399591	33.05409372	7.962595799	0	0.1694142554	26.40646215	347.1406668	4.605247075	8.266762202	0	-0.02489132409	0	15.09082077	0	0	4.411435057	0	
2325.916137	-52.79080633	578.0824427	32.05939673	7.963639671	0	0.1692541415	28.04453647	355.6260149	3.460980052	8.268143807	0	-0.02511206185	0	15.28745957	0	0	3.93253809	0	
2325.917807	-53.08845925	571.3298329	31.06584097	7.964677614	0	0.1690904281	29.68384262	364.0844736	2.298931635	8.269501682	0	-0.02532871337	0	15.48116535	0	0	3.445226525	0	
2325.919473	-53.37380511	564.481943	30.07447798	7.965709288	0	0.1689232567	31.32151768	372.5080982	1.121488616	8.270835473	0	-0.02554134129	0	15.67113589	0	0	2.950673998	0	
2325.921139	-53.64489159	557.5386938	29.08634792	7.96673435	0	0.1687527684	32.95473064	380.8890447	-0.06895562107	8.272144847	0	-0.02575000832	0	15.85656608	0	0	2.450063398	0	
2325.922801	-53.89975846	550.500128	28.10247794	7.967752459	0	0.1685791038	34.58069241	389.2195952	-1.270011463	8.273429492	0	-0.02595477729	0	16.03665079	0	0	1.944581421	0	
2325.924468	-54.13644519	543.3664228	27.12388067	7.968763269	0	0.1684024018	36.1966646	397.4921828	-2.479302313	8.274689123	0	-0.02615571107	0	16.21058756	0	0	1.435413565	0	
2325.926134	-54.35299877	536.1379037	26.15155277	7.969766438	0	0.1682227993	37.79996727	405.699418	-3.694472841	8.275923472	0	-0.02635287247	0	16.37757948	0	0	0.9237395282	0	
2325.927801	-54.54748166	528.8150567	25.18647343	7.97076162	0	0.1680404303	39.38798567	413.8341149	-4.913196421	8.277132297	0	-0.02654632394	0	16.53683801	0	0	0.4107289357	0	
2325.929475	-54.71797981	521.3985404	24.22960306	7.971748473	0	0.1678554256	40.95817643	421.8893176	-6.133181932	8.278315377	0	-0.0267361274	0	16.68758586	0	0	-0.1024626566	0	
2325.931139	-54.86261102	513.8891971	23.28188191	7.972726656	0	0.1676679116	42.50807307	429.8583257	-7.352180089	8.279472514	0	-0.02692234392	0	16.82905986	0	0	-0.6146975512	0	
2325.932807	-54.97953323	506.2880632	22.34422885	7.973695828	0	0.1674780104	44.03529126	437.7347195	-8.567989467	8.280603532	0	-0.0271050335	0	16.96051385	0	0	-1.124859546	0	
2325.934474	-55.06695308	498.5963788	21.41754013	7.974655653	0	0.167285839	45.53753376	445.5123832	-9.778462329	8.28170828	0	-0.02728425486	0	17.08122166	0	0	-1.631857459	0	
2325.936139	-55.12313454	490.8155961	20.50268823	7.975605796	0	0.1670915091	47.01259522	453.1855273	-10.98151035	8.282786631	0	-0.02746006525	0	17.19048003	0	0	-2.134628579	0	
2325.9378	-55.14640767	482.9473876	19.60052076	7.976545925	0	0.1668951268	48.45836685	460.7487089	-12.17511024	8.283838484	0	-0.02763252032	0	17.28761156	0	0	-2.632142039	0	
2325.939467	-55.13517742	474.9936528	18.7118594	7.977475713	0	0.1666967927	49.87284098	468.1968499	-13.35730942	8.284863764	0	-0.02780167403	0	17.37196775	0	0	-3.123402139	0	
2325.941134	-55.08793239	466.9565249	17.8374988	7.978394833	0	0.1664966014	51.25411549	475.5252537	-14.52623145	8.285862422	0	-0.02796757857	0	17.44293189	0	0	-3.607451575	0	
2325.942808	-55.0032536	458.8383763	16.9782056	7.97930296	0	0.1662946418	52.60039804	482.7296189	-15.68008153	8.286834441	0	-0.02813028441	0	17.49992208	0	0	-4.083374585	0	
2325.944471	-54.87982299	450.6418244	16.13471736	7.980199772	0	0.1660909974	53.91001009	489.8060514	-16.81715171	8.287779832	0	-0.0282898402	0	17.54239408	0	0	-4.550299948	0	
2325.946137	-54.71643165	442.3697361	15.30774144	7.981084947	0	0.1658857457	55.18139059	496.751074	-17.93582589	8.288698638	0	-0.02844629289	0	17.56984415	0	0	-5.007403842	0	
2325.947807	-54.51198763	434.0252337	14.49795389	7.981958161	0	0.1656789589	56.41309933	503.5616339	-19.03458449	8.289590937	0	-0.02859968773	0	17.58181169	0	0	-5.453912486	0	
2325.949468	-54.26552305	425.6116988	13.70599819	7.982819095	0	0.1654707029	57.60381982	510.2351076	-20.11200877	8.290456839	0	-0.02875006832	0	17.57788174	0	0	-5.889104568	0	
